# xmcd
#
# Track frame offsets: 
#        150
#        69375
#        115454
#        180362
#        212255
#
# Disc length: 3495 seconds
#
# Revision: 1
# Processed by: cddbd v1.5.2PL0 Copyright (c) Steve Scherf et al.
# Submitted via: ExactAudioCopy v1.0b3
#
DISCID=3b0da505
DTITLE=Jamaladeen Tacuma - Coltrane Configurations
DYEAR=2008
DGENRE=Jazz
TTITLE0=India
TTITLE1=Dahomey Dance
TTITLE2=Impressions
TTITLE3=Naima
TTITLE4=A Love Supreme
EXTD=YEAR: 2008
EXTT0=
EXTT1=
EXTT2=
EXTT3=
EXTT4=
PLAYORDER=
